<svg id="visual" viewBox="0 0 900 600" width="900" height="600" xmlns="http://www.w3.org/2000/svg" xmlns:xlink="http://www.w3.org/1999/xlink" version="1.1"><path d="M0 91L18.8 88C37.7 85 75.3 79 112.8 76C150.3 73 187.7 73 225.2 73C262.7 73 300.3 73 337.8 71C375.3 69 412.7 65 450.2 63C487.7 61 525.3 61 562.8 63C600.3 65 637.7 69 675.2 69C712.7 69 750.3 65 787.8 64C825.3 63 862.7 65 881.3 66L900 67L900 0L881.3 0C862.7 0 825.3 0 787.8 0C750.3 0 712.7 0 675.2 0C637.7 0 600.3 0 562.8 0C525.3 0 487.7 0 450.2 0C412.7 0 375.3 0 337.8 0C300.3 0 262.7 0 225.2 0C187.7 0 150.3 0 112.8 0C75.3 0 37.7 0 18.8 0L0 0Z" fill="#3b0d92"></path><path d="M0 211L18.8 202C37.7 193 75.3 175 112.8 170C150.3 165 187.7 173 225.2 171C262.7 169 300.3 157 337.8 147C375.3 137 412.7 129 450.2 134C487.7 139 525.3 157 562.8 159C600.3 161 637.7 147 675.2 151C712.7 155 750.3 177 787.8 186C825.3 195 862.7 191 881.3 189L900 187L900 65L881.3 64C862.7 63 825.3 61 787.8 62C750.3 63 712.7 67 675.2 67C637.7 67 600.3 63 562.8 61C525.3 59 487.7 59 450.2 61C412.7 63 375.3 67 337.8 69C300.3 71 262.7 71 225.2 71C187.7 71 150.3 71 112.8 74C75.3 77 37.7 83 18.8 86L0 89Z" fill="#5408c7"></path><path d="M0 385L18.8 368C37.7 351 75.3 317 112.8 301C150.3 285 187.7 287 225.2 292C262.7 297 300.3 305 337.8 306C375.3 307 412.7 301 450.2 301C487.7 301 525.3 307 562.8 319C600.3 331 637.7 349 675.2 346C712.7 343 750.3 319 787.8 324C825.3 329 862.7 363 881.3 380L900 397L900 185L881.3 187C862.7 189 825.3 193 787.8 184C750.3 175 712.7 153 675.2 149C637.7 145 600.3 159 562.8 157C525.3 155 487.7 137 450.2 132C412.7 127 375.3 135 337.8 145C300.3 155 262.7 167 225.2 169C187.7 171 150.3 163 112.8 168C75.3 173 37.7 191 18.8 200L0 209Z" fill="#844fda"></path><path d="M0 469L18.8 448C37.7 427 75.3 385 112.8 365C150.3 345 187.7 347 225.2 351C262.7 355 300.3 361 337.8 362C375.3 363 412.7 359 450.2 361C487.7 363 525.3 371 562.8 381C600.3 391 637.7 403 675.2 402C712.7 401 750.3 387 787.8 390C825.3 393 862.7 413 881.3 423L900 433L900 395L881.3 378C862.7 361 825.3 327 787.8 322C750.3 317 712.7 341 675.2 344C637.7 347 600.3 329 562.8 317C525.3 305 487.7 299 450.2 299C412.7 299 375.3 305 337.8 304C300.3 303 262.7 295 225.2 290C187.7 285 150.3 283 112.8 299C75.3 315 37.7 349 18.8 366L0 383Z" fill="#844fda"></path><path d="M0 505L18.8 491C37.7 477 75.3 449 112.8 432C150.3 415 187.7 409 225.2 413C262.7 417 300.3 431 337.8 435C375.3 439 412.7 433 450.2 433C487.7 433 525.3 439 562.8 449C600.3 459 637.7 473 675.2 469C712.7 465 750.3 443 787.8 441C825.3 439 862.7 457 881.3 466L900 475L900 431L881.3 421C862.7 411 825.3 391 787.8 388C750.3 385 712.7 399 675.2 400C637.7 401 600.3 389 562.8 379C525.3 369 487.7 361 450.2 359C412.7 357 375.3 361 337.8 360C300.3 359 262.7 353 225.2 349C187.7 345 150.3 343 112.8 363C75.3 383 37.7 425 18.8 446L0 467Z" fill="#5408c7"></path><path d="M0 601L18.8 601C37.7 601 75.3 601 112.8 601C150.3 601 187.7 601 225.2 601C262.7 601 300.3 601 337.8 601C375.3 601 412.7 601 450.2 601C487.7 601 525.3 601 562.8 601C600.3 601 637.7 601 675.2 601C712.7 601 750.3 601 787.8 601C825.3 601 862.7 601 881.3 601L900 601L900 473L881.3 464C862.7 455 825.3 437 787.8 439C750.3 441 712.7 463 675.2 467C637.7 471 600.3 457 562.8 447C525.3 437 487.7 431 450.2 431C412.7 431 375.3 437 337.8 433C300.3 429 262.7 415 225.2 411C187.7 407 150.3 413 112.8 430C75.3 447 37.7 475 18.8 489L0 503Z" fill="#3b0d92"></path></svg>